<svg xmlns="http://www.w3.org/2000/svg" width="321.174" height="59.567" viewBox="0 0 301.10065 55.843686"><path fill="#fff" fill-rule="evenodd" d="M91.552 33.372H301.1v15.863H91.552z"/><path d="M230.39 12.736c34.119-29.733 63.038.58 46.307 23.502 0 0-1.092 1.857-3.99 3.887 8.116-4.201 15.794-23.619 3.477-37.533 21.167 16.965 7.524 35.254 6.84 35.148 1.768-1.48 2.708-2.649 4.027-4.87-6.934 17.258-21.04 23.495-36.59 17.314 4.348 3.286 11.107 4.151 17.577 4.924-28.198 3.96-40.112-25.057-28.875-36.118-5.347 5.167-6.76 8.694-8.652 15.545-1.293-9.555 7.954-22.207 18.961-25.684 12.087-4.012 21.785 1.856 24.264 8.5-3.493-12.44-20.158-15.049-38.326-4.057 2.785-3.727 12.014-8.271 16.76-8.367-2.39-.68-12.15 1.552-21.78 7.81" fill="#cd042e"/><path d="M230.39 12.736c34.119-29.733 63.038.58 46.307 23.502 0 0-1.091 1.857-3.99 3.886 8.116-4.2 15.794-23.618 3.477-37.532 21.167 16.965 7.524 35.254 6.84 35.148 1.768-1.48 2.708-2.649 4.027-4.87-6.934 17.258-21.04 23.495-36.59 17.314 4.348 3.286 11.107 4.151 17.577 4.924-28.198 3.96-40.112-25.057-28.875-36.118-5.347 5.167-6.76 8.694-8.652 15.545-1.293-9.555 7.954-22.207 18.961-25.684 12.087-4.012 21.785 1.856 24.264 8.5-3.493-12.44-20.158-15.049-38.326-4.057 2.785-3.727 12.014-8.271 16.76-8.367-2.39-.68-12.15 1.552-21.78 7.81z" fill="none" stroke="#cd042e" stroke-width=".02575065"/><path d="M249.558 25.856a9.725 9.725 0 0 1 9.727-9.727 9.725 9.725 0 0 1 9.727 9.727c0 5.374-4.353 9.729-9.727 9.729-5.373 0-9.727-4.355-9.727-9.729" fill="#ffd444"/><path d="M249.832 25.856a9.453 9.453 0 0 1 9.454-9.454 9.452 9.452 0 0 1 9.454 9.454 9.452 9.452 0 0 1-9.454 9.456 9.453 9.453 0 0 1-9.454-9.456" fill="#ffd650"/><path d="M250.105 25.856c0-5.07 4.11-9.18 9.181-9.18 5.07 0 9.183 4.11 9.183 9.18 0 5.071-4.114 9.181-9.183 9.181a9.18 9.18 0 0 1-9.181-9.18" fill="#ffd85b"/><path d="M250.378 25.856a8.908 8.908 0 0 1 8.908-8.908 8.909 8.909 0 1 1-8.908 8.908" fill="#ffda66"/><path d="M250.651 25.856a8.633 8.633 0 0 1 8.635-8.635 8.634 8.634 0 0 1 8.635 8.635 8.634 8.634 0 0 1-8.635 8.635 8.633 8.633 0 0 1-8.635-8.635" fill="#ffdc71"/><path d="M250.924 25.856a8.36 8.36 0 0 1 8.36-8.36 8.361 8.361 0 1 1 0 16.722 8.361 8.361 0 0 1-8.36-8.362" fill="#ffde7b"/><path d="M251.197 25.856a8.087 8.087 0 0 1 8.088-8.087 8.089 8.089 0 1 1-8.088 8.087" fill="#ffe085"/><path d="M251.469 25.856a7.815 7.815 0 0 1 7.816-7.816 7.818 7.818 0 1 1-7.816 7.816" fill="#ffe38f"/><path d="M251.742 25.856a7.544 7.544 0 0 1 7.543-7.543 7.543 7.543 0 0 1 7.545 7.543 7.545 7.545 0 1 1-15.088 0" fill="#ffe598"/><path d="M252.015 25.856a7.272 7.272 0 0 1 14.543 0 7.274 7.274 0 0 1-7.272 7.274 7.274 7.274 0 0 1-7.27-7.274" fill="#ffe7a1"/><path d="M252.288 25.856a6.999 6.999 0 1 1 13.995.003 6.999 6.999 0 0 1-13.995-.003" fill="#ffe9ab"/><path d="M252.562 25.856a6.723 6.723 0 0 1 6.724-6.724 6.725 6.725 0 1 1-6.724 6.724" fill="#ffebb3"/><path d="M252.833 25.856a6.453 6.453 0 0 1 12.904 0 6.452 6.452 0 1 1-12.904 0" fill="#ffedbc"/><path d="M253.106 25.856a6.18 6.18 0 1 1 12.36.003 6.18 6.18 0 0 1-12.36-.003" fill="#ffefc4"/><path d="M253.38 25.856a5.906 5.906 0 1 1 11.812.002 5.906 5.906 0 0 1-11.813-.002" fill="#fff1cd"/><path d="M253.653 25.856a5.633 5.633 0 1 1 11.268 0 5.633 5.633 0 0 1-11.268 0" fill="#fff3d5"/><path d="M253.926 25.856a5.36 5.36 0 1 1 10.72.001 5.36 5.36 0 0 1-10.72 0" fill="#fff6dd"/><path d="M254.199 25.856a5.088 5.088 0 1 1 10.175.002 5.088 5.088 0 0 1-10.175-.002" fill="#fff8e5"/><path d="M254.472 25.856a4.814 4.814 0 1 1 9.628 0 4.814 4.814 0 0 1-9.628 0" fill="#fffaed"/><path d="M254.745 25.856a4.54 4.54 0 1 1 9.08 0 4.54 4.54 0 0 1-9.08 0" fill="#fffcf4"/><path d="M255.018 25.856a4.268 4.268 0 1 1 8.536 0 4.268 4.268 0 0 1-8.536 0" fill="#fffefc"/><path d="M249.802 39.099a12.176 12.176 0 0 0 6.357 3.497c.939.197 1.953.303 3.044.297.422 0 .836-.018 1.236-.047 1.3-.096 2.48-.33 3.548-.68a12.438 12.438 0 0 0 3.617-1.859c.503-.372.963-.776 1.385-1.202.64-.643 1.19-1.339 1.655-2.054a13.935 13.935 0 0 0 1.89-4.512c.397-1.8.344-3.396-.037-4.333a3.309 3.309 0 0 0-.16-.364c-.17-.305-.227.082-.726 1.34-.146.365-.31.729-.493 1.082a13.548 13.548 0 0 1-4.456 5.013 13.15 13.15 0 0 1-5.029 2.05c-.722.129-1.467.199-2.237.206-1.684.014-3.182-.22-4.516-.67-2.124-.712-3.832-1.969-5.22-3.62-1.266-1.51-2.263-3.351-3.06-5.415 0 0-.063-.846-.532.58-.244.744-.27 1.918-.024 3.281.276 1.554.9 3.355 1.942 5.05a13.916 13.916 0 0 0 1.816 2.36" fill="#fff"/><path d="M254.629 25.856a4.658 4.658 0 1 1 9.316.002 4.658 4.658 0 0 1-9.316-.002" fill="#fffcf5"/><path d="M255.954 23.29l6.093.011s-.412 9.018-.505 9.344c-.09.323-.323.53-.415-.036-.572-3.478.477-8.559-.869-8.528h-.59c-.509 0-.526 3.241-.696 3.765-.093.283-.252.235-.345.072-.271-.476-.065-3.837-.688-3.837h-.532c-.275 0-.897 2.153-1.513 2.49-.383.214-.632.164-.326-.215.309-.38.736-1.51.687-2.275h-.666c-.23 0 .365-.792.365-.792" fill="#cd042e"/><g fill="#cd042e"><path d="M.354 15.66a23.963 23.963 0 0 1 3.49-.262c2.345 0 4.014.544 5.121 1.575 1.145 1.032 1.801 2.495 1.801 4.541 0 2.064-.656 3.751-1.82 4.915-1.2 1.181-3.151 1.82-5.608 1.82-1.183 0-2.14-.038-2.984-.15V15.66zm1.652 11.2c.412.076 1.01.076 1.65.076 3.49.018 5.385-1.952 5.385-5.367.017-2.982-1.67-4.877-5.123-4.877-.844 0-1.481.075-1.912.168v10zM14.558 28.136h-1.652V15.49h1.652v12.646zM19.267 24.159l-1.313 3.978h-1.688l4.296-12.646h1.97l4.313 12.646h-1.743l-1.35-3.978h-4.485zm4.146-1.276l-1.258-3.639c-.261-.826-.45-1.576-.637-2.307h-.055a31.37 31.37 0 0 1-.62 2.288l-1.237 3.658h3.807zM39.416 22.583c-.093-1.744-.206-3.902-.206-5.459h-.038c-.451 1.463-.958 3.077-1.594 4.802l-2.232 6.135h-1.24l-2.063-6.022c-.601-1.782-1.089-3.414-1.444-4.915h-.04a164.22 164.22 0 0 1-.241 5.59l-.339 5.423h-1.557l.883-12.645h2.082l2.156 6.115a58.942 58.942 0 0 1 1.276 4.278h.038c.338-1.276.788-2.684 1.35-4.278l2.251-6.115h2.084l.788 12.645h-1.613l-.3-5.554zM48.777 28.343c-3.358 0-5.684-2.589-5.684-6.417 0-4.014 2.475-6.642 5.854-6.642 3.47 0 5.703 2.647 5.703 6.398 0 4.335-2.646 6.66-5.853 6.66h-.02zm.094-1.332c2.589 0 4.053-2.383 4.053-5.253 0-2.514-1.315-5.14-4.034-5.14-2.72 0-4.07 2.532-4.07 5.27 0 2.664 1.462 5.123 4.034 5.123h.017zM56.77 28.136V15.491h1.8l4.035 6.398c.919 1.482 1.67 2.814 2.25 4.108l.057-.019c-.15-1.687-.187-3.225-.187-5.177v-5.31h1.538v12.645h-1.651l-4.014-6.417c-.884-1.406-1.727-2.851-2.347-4.22l-.056.018c.094 1.595.113 3.116.113 5.217v5.402H56.77zM69.097 15.66a23.963 23.963 0 0 1 3.49-.262c2.345 0 4.014.544 5.121 1.575 1.145 1.032 1.801 2.495 1.801 4.541 0 2.064-.656 3.751-1.82 4.915-1.2 1.181-3.152 1.82-5.608 1.82-1.183 0-2.14-.038-2.984-.15V15.66zm1.652 11.2c.412.076 1.01.076 1.65.076 3.49.018 5.385-1.952 5.385-5.367.017-2.982-1.67-4.877-5.123-4.877-.845 0-1.481.075-1.912.168v10zM87.65 28.136l-3.208-12.645h1.727l1.5 6.398c.376 1.595.713 3.152.94 4.371h.035c.208-1.257.603-2.757 1.034-4.39l1.687-6.379h1.707l1.54 6.417c.355 1.52.693 3.001.88 4.333h.038c.264-1.387.62-2.795 1.013-4.37l1.67-6.38h1.669l-3.583 12.645h-1.706l-1.597-6.566c-.393-1.633-.656-2.87-.824-4.146h-.038c-.206 1.276-.506 2.494-.976 4.127l-1.801 6.585H87.65zM103.505 24.159l-1.315 3.978h-1.686L104.8 15.49h1.97l4.314 12.646h-1.744l-1.35-3.978h-4.485zm4.146-1.276l-1.258-3.639c-.261-.826-.45-1.576-.637-2.307h-.055a31.37 31.37 0 0 1-.62 2.288l-1.238 3.658h3.808zM115.756 28.136V22.77l-4.016-7.279h1.877l1.782 3.49c.468.956.863 1.725 1.256 2.608h.038c.338-.826.788-1.652 1.276-2.608l1.82-3.49h1.838l-4.221 7.262v5.383h-1.65zM127.068 15.679c.713-.169 1.858-.28 2.984-.28 1.63 0 2.683.28 3.452.918.656.488 1.07 1.238 1.07 2.232 0 1.24-.826 2.307-2.14 2.778v.056c1.2.282 2.608 1.276 2.608 3.152a3.36 3.36 0 0 1-1.088 2.532c-.863.807-2.288 1.181-4.352 1.181-1.126 0-1.99-.073-2.534-.149v-12.42zm1.633 5.177h1.481c1.709 0 2.721-.918 2.721-2.137 0-1.464-1.107-2.064-2.758-2.064-.75 0-1.181.057-1.444.112v4.09zm0 6.043c.338.055.788.074 1.368.074 1.69 0 3.246-.618 3.246-2.457 0-1.708-1.481-2.44-3.263-2.44h-1.351V26.9zM138.87 15.491v7.504c0 2.815 1.258 4.015 2.943 4.015 1.86 0 3.078-1.238 3.078-4.015V15.49h1.652v7.392c0 3.883-2.046 5.46-4.785 5.46-2.588 0-4.54-1.463-4.54-5.403V15.49h1.651zM149.356 15.66a23.963 23.963 0 0 1 3.49-.262c2.345 0 4.013.544 5.12 1.575 1.146 1.032 1.802 2.495 1.802 4.541 0 2.064-.656 3.751-1.82 4.915-1.2 1.181-3.152 1.82-5.609 1.82-1.183 0-2.139-.038-2.983-.15V15.66zm1.651 11.2c.412.076 1.013.076 1.65.076 3.49.018 5.385-1.952 5.385-5.367.02-2.982-1.67-4.877-5.122-4.877-.845 0-1.482.075-1.913.168v10zM161.851 15.66a23.963 23.963 0 0 1 3.49-.262c2.345 0 4.014.544 5.121 1.575 1.145 1.032 1.8 2.495 1.8 4.541 0 2.064-.655 3.751-1.819 4.915-1.2 1.181-3.152 1.82-5.608 1.82-1.183 0-2.14-.038-2.984-.15V15.66zm1.652 11.2c.412.076 1.01.076 1.65.076 3.49.018 5.385-1.952 5.385-5.367.017-2.982-1.67-4.877-5.123-4.877-.845 0-1.482.075-1.912.168v10zM175.997 15.491v5.291h6.117v-5.29h1.65v12.644h-1.65v-5.93h-6.117v5.93h-1.651V15.491h1.651zM188.23 28.136h-1.65V15.49h1.65v12.646zM190.874 26.148a5.695 5.695 0 0 0 2.908.807c1.67 0 2.646-.864 2.646-2.14 0-1.182-.675-1.876-2.383-2.513-2.063-.712-3.339-1.802-3.339-3.565 0-1.97 1.633-3.434 4.09-3.434 1.275 0 2.233.3 2.775.601l-.45 1.351c-.394-.244-1.237-.6-2.38-.6-1.728 0-2.383 1.031-2.383 1.895 0 1.164.769 1.744 2.513 2.42 2.137.843 3.207 1.858 3.207 3.715 0 1.931-1.425 3.64-4.409 3.64-1.219 0-2.55-.376-3.226-.826l.431-1.351zM210.987 22.583c-.093-1.744-.206-3.902-.206-5.459h-.038c-.452 1.463-.958 3.077-1.595 4.802l-2.232 6.135h-1.24l-2.063-6.022c-.6-1.782-1.088-3.414-1.444-4.915h-.039a164.22 164.22 0 0 1-.242 5.59l-.338 5.423h-1.559l.884-12.645h2.082l2.157 6.115a59.819 59.819 0 0 1 1.275 4.278h.04c.336-1.276.786-2.684 1.349-4.278l2.25-6.115h2.085l.788 12.645h-1.614l-.3-5.554z"/></g><g fill="#cd042e"><path d="M99.498 38.162h.964v3.605h.033c.2-.29.4-.554.589-.8l2.283-2.805h1.197l-2.704 3.171 2.915 4.302h-1.142l-2.45-3.668-.72.818v2.85h-.965v-7.473zM107.258 43.286l-.776 2.348h-.998l2.54-7.472h1.163l2.55 7.472h-1.032l-.797-2.348h-2.65zm2.45-.755l-.744-2.15c-.154-.489-.264-.932-.376-1.364h-.032c-.1.432-.222.897-.368 1.352l-.731 2.162h2.25zM112.956 38.274a10.08 10.08 0 0 1 1.85-.166c1.03 0 1.707.199 2.174.621.365.321.589.831.589 1.418 0 .977-.634 1.63-1.41 1.897v.033c.567.199.908.731 1.097 1.507.246 1.042.422 1.763.567 2.05h-.998c-.122-.22-.288-.852-.487-1.784-.223-1.03-.632-1.418-1.51-1.452h-.907v3.236h-.965v-7.36zm.965 3.392h.985c1.032 0 1.686-.566 1.686-1.418 0-.966-.699-1.387-1.719-1.387-.465 0-.786.045-.952.09v2.715zM125.438 42.353c-.055-1.03-.122-2.305-.122-3.224h-.02a55.247 55.247 0 0 1-.945 2.838l-1.318 3.624h-.732l-1.218-3.557a33.752 33.752 0 0 1-.855-2.905h-.023c-.02.93-.077 2.18-.144 3.303l-.199 3.202h-.92l.522-7.471h1.23l1.274 3.613c.311.92.555 1.753.756 2.53h.02c.201-.754.467-1.587.799-2.53l1.33-3.613h1.23l.466 7.47h-.953l-.178-3.28zM129.485 43.286l-.776 2.348h-.997l2.539-7.472h1.164l2.55 7.472h-1.033l-.796-2.348h-2.65zm2.45-.755l-.743-2.15c-.155-.489-.265-.932-.376-1.364h-.033c-.1.432-.221.897-.367 1.352l-.732 2.162h2.251zM137.413 38.162h.965v3.605h.033c.2-.29.4-.554.589-.8l2.283-2.805h1.196l-2.703 3.171 2.915 4.302h-1.142l-2.45-3.668-.72.818v2.85h-.966v-7.473zM145.172 43.286l-.776 2.348h-.998l2.54-7.472h1.165l2.548 7.472h-1.032l-.797-2.348h-2.65zm2.45-.755l-.742-2.15c-.156-.489-.266-.932-.378-1.364h-.032c-.1.432-.222.897-.368 1.352l-.731 2.162h2.25zM156.448 45.303a6.796 6.796 0 0 1-2.305.41c-1.132 0-2.062-.288-2.795-.988-.642-.62-1.04-1.618-1.04-2.781 0-2.229 1.54-3.858 4.044-3.858.865 0 1.554.189 1.875.343l-.246.787c-.398-.187-.898-.321-1.65-.321-1.82 0-3.006 1.13-3.006 3.006 0 1.895 1.132 3.014 2.885 3.014.631 0 1.064-.09 1.285-.2v-2.229h-1.509v-.776h2.462v3.593zM159.736 45.634v-3.169l-2.373-4.303h1.11l1.053 2.063c.277.567.51 1.02.742 1.542h.022c.201-.49.467-.975.756-1.542l1.073-2.063h1.088l-2.494 4.291v3.181h-.977zM165.267 38.162v4.436c0 1.662.744 2.371 1.741 2.371 1.097 0 1.817-.731 1.817-2.37v-4.437h.976v4.37c0 2.293-1.207 3.225-2.827 3.225-1.53 0-2.683-.865-2.683-3.193v-4.402h.976zM173.815 38.162h.975v6.663h3.194v.81h-4.169v-7.473zM180.16 45.634h-.977v-7.473h.977v7.473zM182.037 45.634v-7.472h1.064l2.383 3.782c.544.875.987 1.661 1.332 2.429l.033-.012c-.09-.998-.112-1.908-.112-3.061v-3.138h.91v7.472h-.977l-2.37-3.79c-.523-.83-1.022-1.686-1.388-2.496l-.032.012c.054.942.067 1.84.067 3.083v3.191h-.91zM193.381 42.132h-2.893v2.693h3.236v.809h-4.212v-7.471h4.048v.808h-3.072v2.362h2.893v.799zM196.494 43.286l-.776 2.348h-.997l2.539-7.472h1.163l2.55 7.472h-1.032l-.796-2.348h-2.651zm2.45-.755l-.744-2.15c-.154-.489-.264-.932-.376-1.364h-.032c-.1.432-.222.897-.368 1.352l-.73 2.162h2.25zM207.674 45.303a6.796 6.796 0 0 1-2.306.41c-1.131 0-2.062-.288-2.795-.988-.642-.62-1.04-1.618-1.04-2.781 0-2.229 1.54-3.858 4.045-3.858.865 0 1.553.189 1.874.343l-.245.787c-.399-.187-.898-.321-1.65-.321-1.82 0-3.004 1.13-3.004 3.006 0 1.895 1.13 3.014 2.882 3.014.632 0 1.063-.09 1.286-.2v-2.229h-1.51v-.776h2.463v3.593zM213.233 42.132h-2.892v2.693h3.236v.809h-4.213v-7.471h4.048v.808h-3.071v2.362h2.892v.799z"/></g></svg>